<?xml version="1.0" encoding="utf-8"?>
<!-- Generator: Adobe Illustrator 16.0.0, SVG Export Plug-In . SVG Version: 6.00 Build 0)  -->
<!DOCTYPE svg PUBLIC "-//W3C//DTD SVG 1.1//EN" "http://www.w3.org/Graphics/SVG/1.1/DTD/svg11.dtd">
<svg version="1.1" id="图层_1" xmlns="http://www.w3.org/2000/svg" xmlns:xlink="http://www.w3.org/1999/xlink" x="0px" y="0px"
	 width="234.116px" height="50.475px" viewBox="0 0 234.116 50.475" enable-background="new 0 0 234.116 50.475"
	 xml:space="preserve">
<g>
	<path fill-rule="evenodd" clip-rule="evenodd" fill="#003E7F" d="M195.509,36.618l0.009-0.847
		c1.354-6.567,2.523-13.185,3.795-19.775c1.465-5.04,6.417-3.868,6.417-3.868c-0.272,1.55-0.996,5.911-1.849,10.301l13.446,0.033
		c0.41-2.131,0.803-4.247,1.218-6.381c1.527-5.182,6.416-3.871,6.416-3.871c-0.398,2.298-1.867,10.911-3.089,16.423
		c-0.308,1.337-0.598,3.216-0.847,4.057c-1.313,4.317-6.471,3.988-6.471,3.988c0.726-3.448,1.401-6.923,2.045-10.392l-13.475-0.06
		c-0.144,0.797-0.322,1.599-0.487,2.325c-0.292,1.335-0.577,3.212-0.844,4.053C200.632,36.455,196.406,36.621,195.509,36.618
		L195.509,36.618z M195.594,15.909h0.17c0,0-0.032-0.563-0.153-1.293L195.594,15.909z M195.611,14.616l-0.017,1.293l-15.468-0.064
		c-1.887-0.01-2.731-0.343-3.337,1.978c-0.179,0.679-0.329,1.337-0.44,1.925c-0.562,3.169-1.251,6.29-1.676,9.454
		c-0.291,3.125,1.961,3.364,1.961,3.364l15.948,0.188l-0.715,3.73c0,0-15.802,0.098-19.644-0.202
		c-3.511-0.439-3.848-3.633-3.271-7.599l2.248-12.243c1.143-4.479,5.463-4.533,5.463-4.533l17.296,0.075
		C194.941,11.984,195.386,13.49,195.611,14.616L195.611,14.616z M195.518,35.771c-0.056,0.285-0.123,0.543-0.182,0.823
		c0,0,0.056,0,0.173,0.023L195.518,35.771L195.518,35.771z M141.507,34.463l0.042-8.549l1.746-9.595
		c1.445-4.688,5.463-4.534,5.463-4.534l17.284,0.075c1.598,0.01,1.818,3.931,1.818,3.931l-15.626-0.066
		c-1.899-0.013-2.743-0.344-3.37,1.979c-0.513,2.066-0.788,4.06-0.788,4.06l18.6,0.033l-0.6,3.851l-18.692-0.106
		c0,0-0.284,1.193-0.613,3.543c-0.274,3.121,1.973,3.362,1.973,3.362l15.922,0.189l-0.701,3.729c0,0-15.785,0.096-19.629-0.203
		C142.952,35.992,142.055,35.38,141.507,34.463L141.507,34.463z M141.595,13.799c0.366-0.727,0.593-1.525,0.707-2.061l-0.695-0.006
		L141.595,13.799z M99.498,11.598l-0.015,3.827c3.209-0.036,6.919-0.017,9.551-0.006c-0.331,2.254-1.788,9.244-2.567,14.055
		c-0.469,2.814-1.574,2.879-3.924,2.822l-3.13-0.084l-0.023,3.78c4.229-0.006,7.83-0.039,7.83-0.039
		c1.41,0.009,4.021-0.732,4.75-5.166c0,0,2.169-10.744,2.445-13.675c0.404-2.373-1.894-5.435-3.88-5.441 M141.606,11.732
		l-0.012,2.066c-0.504,1.031-1.283,1.942-2.423,1.893l-4.246-0.044l-2.553-0.008l-3.936,20.599l-5.867-0.101l3.915-20.504
		l-10.395-0.041c0.272-1.293,1.155-4.036,3.115-3.954L141.606,11.732L141.606,11.732z M141.549,25.914l-0.484,2.651
		c-0.37,2.396-0.378,4.507,0.442,5.897L141.549,25.914z M99.498,11.598l-7.615-0.023c0,0-4.076-0.145-5.31,3.725l-1.533,8.259
		c-1.143,6.218-2.438,11.655,2.195,12.243c1.999,0.147,7.467,0.194,12.153,0.191l0.023-3.78l-7.092-0.171
		c0,0-2.722,0.106-2.44-2.995c0.225-2.578,1.148-7.552,2.03-10.908c0.701-2.672,1.794-2.665,3.954-2.727
		c1.05-0.022,2.269,0.031,3.619,0.014L99.498,11.598L99.498,11.598z M76.439,35.915c-3.863,0.267-21.935-0.094-21.935-0.094
		c0.044-0.589,0.375-3.261,2.125-3.697l17.473,0.073c1.588-0.039,1.925-4.64,2.271-6.732l-19.984-0.082
		c0.288-2.137,0.917-4.574,1.234-6.781c0.426-3.169,1.947-4.971,3.406-5.949c1.465-1.002,2.816-1.207,2.816-1.207l16.159,0.071
		c2.154-0.063,2.898,0.966,3.077,3.855c0,0-12.197-0.094-16.892-0.064c-2.81,0.01-2.845,3.2-3.264,6.181L82.963,21.6
		c-0.387,1.761-0.844,4.105-1.181,6.169C81.134,32.018,80.612,35.559,76.439,35.915z"/>
	<g>
		
			<linearGradient id="SVGID_1_" gradientUnits="userSpaceOnUse" x1="674.2026" y1="1513.502" x2="715.0884" y2="1513.502" gradientTransform="matrix(1 0 0 1 -663.7427 -1495.0889)">
			<stop  offset="0" style="stop-color:#00AFEC"/>
			<stop  offset="1" style="stop-color:#00326C"/>
		</linearGradient>
		<path fill-rule="evenodd" clip-rule="evenodd" fill="url(#SVGID_1_)" d="M33.629,6.751c6.808-0.484,12.888,0.345,17.717,2.058
			l-4.363,9.174c-4.916-1.656-11.665-2.658-16.988-2.458c-9.455,0.314-16.495,4.943-16.204,9.201
			c0.174,2.345,2.617,4.315,6.341,5.487c-5.38-0.687-9.135-2.6-9.6-6.829C9.599,15.152,17.775,8.009,33.629,6.751z"/>
		
			<linearGradient id="SVGID_2_" gradientUnits="userSpaceOnUse" x1="672.2773" y1="1524.8105" x2="713.1582" y2="1524.8105" gradientTransform="matrix(1 0 0 1 -663.7427 -1495.0889)">
			<stop  offset="0" style="stop-color:#79BD28"/>
			<stop  offset="1" style="stop-color:#00853B"/>
		</linearGradient>
		<path fill-rule="evenodd" clip-rule="evenodd" fill="url(#SVGID_2_)" d="M26.25,41.391c-6.807,0.457-12.916-0.372-17.715-2.058
			l4.362-9.144c4.918,1.656,11.636,2.628,16.96,2.458c9.484-0.343,16.525-4.972,16.204-9.23c-0.145-2.343-2.591-4.287-6.342-5.487
			c5.381,0.687,9.135,2.628,9.628,6.831C50.252,32.989,42.104,40.133,26.25,41.391z"/>
	</g>
</g>
</svg>
